<svg width="33" height="33" viewBox="0 0 33 33" fill="none" xmlns="http://www.w3.org/2000/svg">
<path fill-rule="evenodd" clip-rule="evenodd" d="M14.4324 24.8199H6.0276C5.47538 24.8199 5.02719 24.3719 5.02719 23.8199C5.02719 23.2679 5.47538 22.8199 6.0276 22.8199H14.4324C14.9846 22.8199 15.4328 23.2679 15.4328 23.8199C15.4328 24.3719 14.9846 24.8199 14.4324 24.8199Z" fill="white"/>
<path fill-rule="evenodd" clip-rule="evenodd" d="M26.5851 11.8967H18.1817C17.6295 11.8967 17.1813 11.4487 17.1813 10.8967C17.1813 10.3447 17.6295 9.89668 18.1817 9.89668H26.5851C27.1374 9.89668 27.5855 10.3447 27.5855 10.8967C27.5855 11.4487 27.1374 11.8967 26.5851 11.8967Z" fill="white"/>
<mask id="mask0_105_46" style="mask-type:luminance" maskUnits="userSpaceOnUse" x="4" y="6" width="10" height="9">
<path fill-rule="evenodd" clip-rule="evenodd" d="M4.98834 6.69657H13.2928V14.952H4.98834V6.69657Z" fill="white"/>
</mask>
<g mask="url(#mask0_105_46)">
<path fill-rule="evenodd" clip-rule="evenodd" d="M9.14043 8.69617C7.95461 8.69617 6.98888 9.65084 6.98888 10.8255C6.98888 11.9988 7.95461 12.9522 9.14043 12.9522C10.3276 12.9522 11.292 11.9988 11.292 10.8255C11.292 9.65084 10.3276 8.69617 9.14043 8.69617ZM9.14041 14.9521C6.85147 14.9521 4.98804 13.1014 4.98804 10.8254C4.98804 8.54942 6.85147 6.69609 9.14041 6.69609C11.4307 6.69609 13.2928 8.54942 13.2928 10.8254C13.2928 13.1014 11.4307 14.9521 9.14041 14.9521Z" fill="white"/>
</g>
<path fill-rule="evenodd" clip-rule="evenodd" d="M24.1798 21.6401C22.9927 21.6401 22.0269 22.5947 22.0269 23.7681C22.0269 24.9427 22.9927 25.8961 24.1798 25.8961C25.3656 25.8961 26.33 24.9427 26.33 23.7681C26.33 22.5947 25.3656 21.6401 24.1798 21.6401ZM24.1799 27.8961C21.8896 27.8961 20.0262 26.0441 20.0262 23.7681C20.0262 21.4921 21.8896 19.6401 24.1799 19.6401C26.4688 19.6401 28.3309 21.4921 28.3309 23.7681C28.3309 26.0441 26.4688 27.8961 24.1799 27.8961Z" fill="white"/>
</svg>
